<svg version="1.1" id="Layer_1" xmlns="http://www.w3.org/2000/svg" xmlns:xlink="http://www.w3.org/1999/xlink" x="0px" y="0px"
	 width="100%" viewBox="0 0 1024 576" enable-background="new 0 0 1024 576" xml:space="preserve">
<path fill="#000000" opacity="1.000000" stroke="none" 
	d="
M518.531372,1.000000 
	C531.809082,3.822667 544.937927,5.150610 557.433350,9.446916 
	C629.014343,34.058708 674.910400,82.631653 691.142578,156.779205 
	C704.648804,218.474686 689.782043,274.398346 650.017883,323.342712 
	C627.340454,351.255554 598.452820,370.792938 564.570862,382.904358 
	C560.713501,384.283203 556.841797,385.113831 552.928406,383.232513 
	C548.796570,381.246216 547.557861,377.740601 547.583374,373.362183 
	C547.683533,356.197296 547.576111,339.031097 547.696411,321.866486 
	C547.790161,308.491333 545.271301,296.033691 536.041748,285.689606 
	C535.749329,285.361908 535.740540,284.781128 535.526306,284.077820 
	C539.379639,282.098602 543.657104,282.505157 547.664062,281.746490 
	C562.517822,278.934143 576.835327,274.681030 589.473694,266.103119 
	C609.942566,252.210480 619.355103,231.842850 622.627136,208.111282 
	C624.222229,196.542038 624.669495,184.899170 622.850647,173.291733 
	C620.764465,159.978073 615.319702,148.138885 606.640015,137.849823 
	C604.616333,135.450897 604.110046,133.416824 605.086853,130.219620 
	C609.677795,115.193077 608.338623,100.324570 603.140503,85.639191 
	C602.160767,82.871368 600.407654,82.254883 597.812012,82.297401 
	C588.595459,82.448418 580.205688,85.618309 571.973389,89.303986 
	C564.810608,92.510811 558.061829,96.499405 551.576599,100.900414 
	C549.467957,102.331345 547.480103,102.740753 545.019714,102.104935 
	C514.754028,94.283775 484.440918,94.233986 454.152618,101.902214 
	C450.689545,102.778984 448.108643,101.863861 445.293945,100.077095 
	C433.012939,92.281067 420.360718,85.307388 405.739105,82.800018 
	C397.216034,81.338448 396.101654,81.895966 393.679474,90.249550 
	C389.743988,103.822212 388.980713,117.457054 393.428680,131.058441 
	C394.280090,133.661896 393.684723,135.497665 392.058502,137.425018 
	C376.282562,156.122711 372.415558,177.931305 374.953033,201.591690 
	C376.277618,213.942932 378.671875,225.910522 384.024200,237.188751 
	C395.384033,261.125824 415.604919,273.368896 440.272736,279.539886 
	C447.471466,281.340759 454.867859,282.351471 462.489319,283.783661 
	C461.539642,287.126556 459.009979,288.971222 457.540497,291.470825 
	C454.716858,296.273834 452.759491,301.392914 451.821106,306.837250 
	C451.294067,309.895020 449.685242,311.307343 446.897430,312.336975 
	C424.846619,320.480957 406.525696,314.563477 393.512115,294.998444 
	C387.090942,285.344666 379.505890,277.138428 367.439240,274.736877 
	C364.296204,274.111359 361.159088,274.034363 358.063538,275.067200 
	C355.080078,276.062592 354.485199,277.985718 356.281921,280.412048 
	C357.351379,281.856262 358.692047,283.309174 360.240173,284.155914 
	C371.423218,290.272583 378.256927,300.426208 382.539032,311.571381 
	C390.305023,331.784393 405.718658,338.680756 425.497467,339.587189 
	C432.009613,339.885620 438.468781,339.050842 444.867310,337.934387 
	C448.696136,337.266327 450.383453,338.318756 450.310608,342.494049 
	C450.136353,352.489868 450.319214,362.491486 450.293976,372.490570 
	C450.270477,381.794342 444.414276,386.268524 435.475311,383.499878 
	C421.723206,379.240479 408.747894,373.140747 396.547302,365.542419 
	C347.435852,334.956604 316.173798,291.439087 305.333771,234.599884 
	C294.419403,177.370758 306.649872,124.722130 342.008209,78.085632 
	C372.053925,38.456299 411.966400,14.206748 460.588684,4.200912 
	C466.442322,2.996307 472.393005,2.263311 478.649353,1.155865 
	C492.020905,1.000000 505.041779,1.000000 518.531372,1.000000 
z"/>
<path fill="#000000" opacity="1.000000" stroke="none" 
	d="
M475.468658,577.000000 
	C474.886719,574.677429 474.675446,572.354919 474.674561,570.032288 
	C474.656372,522.891418 474.660675,475.750580 474.665192,428.609711 
	C474.665894,421.311493 474.961700,420.998352 482.225128,420.971222 
	C489.720886,420.943207 497.217163,420.931488 504.712677,420.985382 
	C510.739471,421.028717 511.328827,421.615479 511.337799,427.540100 
	C511.363251,444.364197 511.473267,461.189880 511.263214,478.011383 
	C511.208740,482.374878 512.556458,483.837646 516.957764,483.749756 
	C529.112793,483.507111 541.278687,483.529785 553.434570,483.753479 
	C557.576782,483.829651 558.956177,482.440125 558.915466,478.321808 
	C558.750793,461.665894 558.829163,445.007416 558.858582,428.349945 
	C558.870483,421.646576 559.508972,421.025452 566.373596,420.979675 
	C573.869141,420.929718 581.365601,420.926544 588.861084,420.978302 
	C595.284424,421.022644 596.151794,421.851227 596.150940,428.146851 
	C596.144043,477.453003 596.106995,526.759155 596.039673,576.532654 
	C583.979126,577.000000 571.958191,577.000000 559.404297,576.534851 
	C558.869263,558.584656 558.675293,541.096191 558.982605,523.616577 
	C559.074158,518.408997 557.338440,517.087830 552.392700,517.234619 
	C541.245178,517.565430 530.080933,517.332153 518.923523,517.336548 
	C511.358582,517.339539 511.388184,517.345947 511.344604,525.079102 
	C511.247009,542.386169 511.116913,559.693054 511.000000,577.000000 
	C499.312439,577.000000 487.624878,577.000000 475.468658,577.000000 
z"/>
<path fill="#000000" opacity="1.000000" stroke="none" 
	d="
M210.468658,577.000000 
	C192.571609,560.867004 186.969177,540.022949 185.475693,517.225037 
	C184.099091,496.211090 185.453690,475.606689 192.952759,455.830017 
	C202.099884,431.707092 220.223923,418.838501 245.540146,415.656036 
	C262.404205,413.536133 279.078308,414.705658 295.566467,418.742035 
	C297.019318,419.097687 298.455566,419.547363 299.864960,420.050262 
	C308.107788,422.991394 308.371857,423.494598 306.380493,431.963928 
	C305.010956,437.788574 303.476105,443.581512 302.338165,449.451233 
	C301.439850,454.084595 299.148010,454.985901 294.851379,453.637665 
	C281.424774,449.424591 267.616577,448.963196 253.841476,450.991119 
	C239.316086,453.129486 230.359863,462.235107 226.286255,476.000488 
	C220.823273,494.460938 220.823059,513.156128 225.919006,531.657349 
	C230.881577,549.674255 242.024124,557.707458 260.654694,557.709412 
	C264.986115,557.709900 269.289337,557.614990 273.600037,556.937317 
	C276.391754,556.498352 277.727661,555.492065 277.687103,552.506958 
	C277.573944,544.179382 277.587158,535.848389 277.685425,527.520386 
	C277.720612,524.540527 276.539398,523.290588 273.549500,523.347656 
	C268.554199,523.443115 263.554138,523.275391 258.558197,523.353943 
	C255.229614,523.406311 253.635864,521.998352 253.660446,518.606567 
	C253.717178,510.777679 253.695862,502.948059 253.669922,495.118866 
	C253.659439,491.952057 255.247513,490.666443 258.325348,490.673218 
	C275.483429,490.710876 292.641724,490.729462 309.799652,490.666687 
	C313.335449,490.653748 314.396393,492.398193 314.386414,495.635132 
	C314.303589,522.453430 314.286926,549.271912 314.125122,576.545166 
	C279.645782,577.000000 245.291550,577.000000 210.468658,577.000000 
z"/>
<path fill="#000000" opacity="1.000000" stroke="none" 
	d="
M732.468628,577.000000 
	C731.885376,575.009521 731.671387,573.019165 731.670715,571.028625 
	C731.654053,523.539429 731.655884,476.050201 731.666992,428.561005 
	C731.668701,421.346619 732.009583,421.017578 739.324646,420.989685 
	C746.989502,420.960419 754.657043,421.092743 762.318481,420.927826 
	C766.747986,420.832520 768.533752,422.450806 768.462708,427.092865 
	C768.240906,441.586121 768.373840,456.085052 768.405579,470.581696 
	C768.410217,472.696655 768.061218,474.920380 769.755615,477.173248 
	C775.995667,475.087036 782.059326,472.367584 788.711243,471.547028 
	C817.854309,467.952148 834.820435,479.835724 839.766907,508.868500 
	C843.035583,528.053711 842.315979,547.361755 836.325256,566.146606 
	C835.218384,569.617676 833.555176,572.911255 832.074341,576.643433 
	C798.979126,577.000000 765.958191,577.000000 732.468628,577.000000 
M768.214783,545.474609 
	C768.239929,559.696960 768.239380,559.700439 782.399170,562.021667 
	C783.710754,562.236755 785.032104,562.486572 786.354675,562.524780 
	C796.200439,562.809204 801.684692,558.411377 803.539062,548.776306 
	C805.221924,540.031860 805.220093,531.155701 804.455627,522.390686 
	C803.059998,506.389465 796.026611,499.862885 782.651062,501.528137 
	C779.225281,501.954712 775.914124,503.304718 772.551208,504.233856 
	C769.369446,505.112885 768.131958,507.097198 768.178284,510.486450 
	C768.333130,521.816345 768.222656,533.149902 768.214783,545.474609 
z"/>
<path fill="#000000" opacity="1.000000" stroke="none" 
	d="
M616.468628,577.000000 
	C612.390808,570.441895 610.693665,563.386719 610.678284,555.934692 
	C610.626709,530.953918 610.701050,505.972412 610.514038,480.992828 
	C610.479004,476.313660 611.889587,474.388306 616.778076,474.567474 
	C624.927490,474.866150 633.104309,474.866608 641.253296,474.559387 
	C646.192322,474.373138 647.513672,476.394226 647.474792,481.030243 
	C647.295898,502.345825 647.379578,523.663635 647.377625,544.980652 
	C647.376221,560.245056 652.815063,564.649658 667.967163,561.661316 
	C668.943604,561.468750 669.916321,561.233093 670.867798,560.942566 
	C679.294739,558.370056 679.713318,557.814148 679.713257,549.196838 
	C679.713013,526.547485 679.692444,503.898132 679.714233,481.248779 
	C679.720093,475.136993 680.191162,474.679688 686.245728,474.655731 
	C694.405945,474.623474 702.569336,474.788391 710.725647,474.607971 
	C714.799561,474.517883 716.375854,476.079010 716.361389,480.162048 
	C716.248108,512.136047 716.254639,544.110474 716.112061,576.542358 
	C682.979126,577.000000 649.958191,577.000000 616.468628,577.000000 
z"/>
<path fill="#000000" opacity="1.000000" stroke="none" 
	d="
M403.468658,577.000000 
	C398.302704,566.758545 397.425415,555.923767 397.652252,544.826782 
	C397.886932,533.345825 397.566162,521.853821 397.770294,510.371643 
	C397.840576,506.418976 396.478302,504.838928 392.580627,505.268341 
	C391.100769,505.431427 389.587280,505.288055 388.089142,505.286316 
	C378.804352,505.275543 378.804352,505.275787 378.803040,495.732391 
	C378.800934,480.389435 378.783478,480.323334 393.249451,476.504883 
	C396.525177,475.640198 397.865967,474.088379 397.760406,470.593994 
	C397.529297,462.943756 397.913300,455.272766 397.607758,447.627777 
	C397.419952,442.928040 399.273895,441.503967 403.741699,441.637024 
	C411.891052,441.879639 420.058289,441.880157 428.207367,441.631622 
	C432.672180,441.495453 434.557800,442.906952 434.359131,447.610229 
	C434.057312,454.755219 434.424683,461.926392 434.229736,469.078827 
	C434.129791,472.744049 435.464417,474.207672 439.140350,474.082733 
	C444.127991,473.913208 449.127991,474.142487 454.119751,474.047577 
	C458.230377,473.969421 460.312042,475.621429 460.231201,479.939423 
	C460.106598,486.595520 460.163788,493.255737 460.200409,499.913910 
	C460.220703,503.605133 458.660522,505.431091 454.778107,505.309967 
	C449.955658,505.159515 445.110474,505.517090 440.301270,505.224701 
	C435.817169,504.952118 434.087616,506.418060 434.193695,511.132019 
	C434.470764,523.444031 434.622559,535.777710 434.193481,548.080811 
	C433.842773,558.137207 439.022522,562.186951 450.121307,562.468384 
	C451.265717,562.497437 452.415405,562.086060 453.570923,561.948669 
	C459.013702,561.301453 460.224060,562.294250 460.309052,567.604980 
	C460.354309,570.432434 460.253845,573.262207 460.109558,576.545471 
	C441.312439,577.000000 422.624878,577.000000 403.468658,577.000000 
z"/>
<path fill="#000000" opacity="1.000000" stroke="none" 
	d="
M331.468658,577.000000 
	C332.236298,572.202148 331.104828,567.386475 331.104156,562.579590 
	C331.100525,535.944763 331.068237,509.309967 331.085938,482.675140 
	C331.091125,474.851288 331.817200,474.139618 339.649109,474.087708 
	C347.306091,474.036926 354.963806,474.108551 362.621094,474.084076 
	C366.421936,474.071960 368.378693,475.474945 368.360504,479.698883 
	C368.222321,511.825378 368.233002,543.952576 368.098633,576.539795 
	C355.979095,577.000000 343.958221,577.000000 331.468658,577.000000 
z"/>
<path fill="#000000" opacity="1.000000" stroke="none" 
	d="
M337.387054,429.263702 
	C346.948883,423.102478 356.096100,423.366241 363.486938,429.774200 
	C370.438019,435.800873 372.495575,445.970764 368.505615,454.368347 
	C364.836395,462.090912 358.447784,466.010864 350.208984,466.018890 
	C341.483093,466.027374 335.021942,461.627106 331.483063,453.463470 
	C328.108826,445.679688 329.564392,438.522369 334.620728,431.949036 
	C335.323181,431.035858 336.269379,430.310150 337.387054,429.263702 
z"/>
</svg>